<?xml version="1.0" encoding="UTF-8" standalone="no"?>
<svg
   id="Layer_1"
   viewBox="0 0 445 492"
   version="1.1"
   sodipodi:docname="ophysia.svg"
   inkscape:version="1.3.2 (091e20e, 2023-11-25)"
   xmlns:inkscape="http://www.inkscape.org/namespaces/inkscape"
   xmlns:sodipodi="http://sodipodi.sourceforge.net/DTD/sodipodi-0.dtd"
   xmlns="http://www.w3.org/2000/svg"
   xmlns:svg="http://www.w3.org/2000/svg">
  <sodipodi:namedview
     id="namedview190"
     pagecolor="#ffffff"
     bordercolor="#000000"
     borderopacity="0.25"
     inkscape:showpageshadow="2"
     inkscape:pageopacity="0.0"
     inkscape:pagecheckerboard="0"
     inkscape:deskcolor="#d1d1d1"
     inkscape:zoom="1.5643993"
     inkscape:cx="78.304816"
     inkscape:cy="269.11288"
     inkscape:window-width="1312"
     inkscape:window-height="861"
     inkscape:window-x="0"
     inkscape:window-y="38"
     inkscape:window-maximized="0"
     inkscape:current-layer="Layer_1" />
  <defs
     id="defs1">
    <style
       id="style1">
      .cls-1 {
        fill: #6d6d6d;
      }

      .cls-2 {
        fill: #cecece;
      }

      .cls-3 {
        fill: #adadad;
      }

      .cls-4 {
        fill: #7c7c7c;
      }

      .cls-5 {
        fill: #a7a7a7;
      }

      .cls-6 {
        fill: #d2d2d2;
      }

      .cls-7 {
        fill: #e3e3e3;
      }

      .cls-8 {
        fill: #454545;
      }

      .cls-9 {
        fill: #ababab;
      }

      .cls-10 {
        fill: #e4e4e4;
      }

      .cls-11 {
        fill: #aaa;
      }

      .cls-12 {
        fill: #c1c1c1;
      }

      .cls-13 {
        fill: #8d8d8d;
      }

      .cls-14 {
        fill: #a5a5a5;
      }

      .cls-15 {
        fill: #5c5c5c;
      }

      .cls-16 {
        fill: #4e4e4e;
      }

      .cls-17 {
        fill: #303030;
      }

      .cls-18 {
        fill: #141414;
      }

      .cls-19 {
        fill: #666;
      }

      .cls-20 {
        fill: #d7d7d7;
      }

      .cls-21 {
        fill: #878787;
      }

      .cls-22 {
        fill: #bcbcbc;
      }

      .cls-23 {
        fill: #151515;
      }

      .cls-24 {
        fill: #848484;
      }

      .cls-25 {
        fill: #fefefe;
      }

      .cls-26 {
        fill: #e2e2e2;
      }

      .cls-27 {
        fill: #a4a4a4;
      }

      .cls-28 {
        fill: #fcfcfc;
      }

      .cls-29 {
        fill: #a9a9a9;
      }

      .cls-30 {
        fill: #787878;
      }

      .cls-31 {
        fill: #535353;
      }

      .cls-32 {
        fill: #d1d1d1;
      }

      .cls-33 {
        fill: #616161;
      }

      .cls-34 {
        fill: #d3d3d3;
      }

      .cls-35 {
        fill: #e0e0e0;
      }

      .cls-36 {
        fill: #fbfbfb;
      }

      .cls-37 {
        fill: #fdfdfd;
      }

      .cls-38 {
        fill: #4c4c4c;
      }
    </style>
  </defs>
  <g
     id="_x35_1Jcea.tif">
    <g
       id="g190">
      <path
         class="cls-11"
         d="m 183.5,282.05 c -5.1517,2.27881 -30.56575,11.19976 -43.59302,11.59912 C 130.28515,293.64971 122.06,293.27 113.59,293.23 c -3.46,-0.02 -7,-0.5 -10.43,-1.21 -2.21,-0.46 -4.44,-0.57 -6.63,-0.78 -10.9,-1.05 -21.27,-3.9 -31.24,-8.35 -1.59,-0.71 -3.27,-1.22 -4.87,-1.91 -0.6,-0.26 -1.3,-0.57 -1.19,-1.41 0.12,-0.95 0.89,-1.07 1.67,-1.14 1.6,-0.14 3.2,0 4.69,0.49 3.76,1.25 7.71,0.87 11.51,1.55 9.3,1.67 18.67,1.43 28.04,1.41 4.59,0 9.26,-0.02 13.75,-0.65 9.15,-1.3 18.34,-2.45 27.3,-5.03 7.59,-2.18 15.07,-4.57 22.43,-7.44 6.04,-2.36 -2.43888,0.93218 18.20696,-6.95608 8.35197,-2.32253 8.35382,-2.40009 9.91304,-6.58392 1.87448,5.03491 13.06856,15.39796 12.55,20.58 -9.69444,1.35869 -16.3258,3.83005 -25.79,6.25 z"
         id="path40"
         sodipodi:nodetypes="ccccccccccccccccccc" />
      <path
         class="cls-9"
         d="M228.79,341.64c-.07,4.04.13,7.04-.8,9.95-.51,1.58-1.16,1.9-2.37.62-4.63-4.89-10.21-8.04-16.8-9.64-2.64-.64-5.44-1.63-6.71-4.64-1.55-3.67-.95-6.39,2.18-8.97,5.22-4.32,12.2-4.57,17.77-.65,4.99,3.51,7.99,7.96,6.73,13.33Z"
         id="path47" />
      <path
         class="cls-11"
         d="m 298.17,429.49 c 0.69,-0.5 1.19,-1.11 1.42,-1.97 2.1,-7.84 6.75,-14.21 11.97,-20.16 9.24,-10.53 21.02,-17.72 32.95,-24.72 8.35,-4.9 17.32,-8.41 26.34,-11.77 3.27,-1.22 6.87,-1.14 10.3,-1.6 4.13,-0.56 9.01,4.76 8.91,8.77 -0.04,1.67 -1.06,2.74 -1.85,3.99 -1.21,1.91 -0.86,2.67 1.33,2.99 3.85,0.57 7.73,0.73 11.59,1.39 7.3,1.25 21.87451,5.29177 20.84252,23.9561 v 0 C 420.10339,419.16814 408.29,422.23 401.45,418.09 c -0.21,-0.13 -0.41,-0.3 -0.63,-0.41 -1.22,-0.59 -2.33,-2.32 -3.69,-1.49 -1.4,0.86 0.19,2.22 0.37,3.36 0.64,4.03 -1.26,6.36 -5.78,6.85 -1.5,0.16 -2.99,0.08 -4.43,-0.46 -0.31,-0.12 -0.62,-0.33 -0.94,-0.33 -6.4,-0.19 -11.2,-4.98 -17.46,-5.89 -7.89,-1.14 -15.7,-2.43 -23.73,-1.91 -5.99,0.39 -11.86,1.17 -17.71,2.55 -3.3,0.78 -6.08,2.72 -9.32,3.45 -6.84,1.54 -12.65,5.25 -18.6,8.65 -0.55,0.31 -1.18,0.87 -1.81,0.32 -0.58,-0.5 0.05,-1.06 0.16,-1.59 0.12,-0.56 0.2,-1.14 0.29,-1.71 z"
         id="path71"
         sodipodi:nodetypes="cccccccccccccccccccccccccccc" />
      <path
         class="cls-11"
         d="M403.55,320.68c5.78-.1,9.05,4.65,7.88,9.93-.97,4.37-4.37,5.88-7.52,7.67-5.64,3.21-11.9,5.05-17.91,7.43-7.07,2.8-14.56,4.61-21.02,8.86-.53.35-1.24.91-1.81.37-.77-.73.08-1.4.48-1.92,4.08-5.35,8.39-10.51,13.4-15.04.25-.22.56-.38.77-.63,5.99-6.83,14.13-10.68,21.52-15.56,1.37-.9,3.04-.75,4.21-1.11Z"
         id="path84" />
      <path
         class="cls-25"
         d="M157.72,337.09c12.81,0,25.63,0,38.44,0,3.33,0,3.6.28,3.62,3.52.02,4.91.03,9.82,0,14.73-.02,2.67-.59,3.12-2.95,1.98-6-2.89-12.25-5.15-18.63-6.96-6.28-1.78-12.58-3.61-19.19-3.81-1.06-.03-2.16-.25-3.17-.57-5.28-1.68-10.39-.9-15.36,1.1-4.35,1.76-6.37,6.53-4.77,11.78.63,2.05-.06,2.85-1.6,3.73-5.27,3.04-9.56,7.1-11.43,13-2.7,8.54.41,16.49,9.42,19.21,3.02.91,5.47-1.03,8.16-1.65,1.59-.37,2.27-.22,3.13,1.24,3.74,6.33,9.13,7.92,15.97,5.45,6.3-2.27,11.43-6.42,16.96-9.92,5.39-3.42,11.01-6.07,17.35-7.03.16-.02.32-.08.48-.13,5.56-1.87,5.62-1.82,5.62,4.04,0,1.25-.14,2.51.03,3.74.4,3.04-1.2,4.61-3.75,5.67-4.65,1.93-8.48,4.95-11.14,9.23-2.32,3.72-.94,6.03,3.45,6.06,2.91.02,5.82.05,8.74,0,1.91-.03,2.69.84,2.69,2.72-.01,7.61.54,6.76-6.37,6.76-24.55.02-49.09,0-73.64,0-4.33,0-4.39-.06-4.39-4.25,0-25.12,0-50.25,0-75.37,0-4.2.06-4.25,4.39-4.25,12.65,0,25.29,0,37.94,0Z"
         id="path112" />
      <path
         class="cls-11"
         d="M211.26,377.54c-9.98.36-19.86,1.44-29.04,5.67-4.74,2.19-9.22,4.97-13.42,8.11-4.07,3.03-8.58,5.06-13.42,6.38-4.21,1.15-9.99-2.91-10.92-7.75-.43-2.25-1.14-2.49-2.86-1.14-2.24,1.76-4.97,2.32-7.7,2.61-4.47.47-8.61-3.58-9.09-8.02-.87-8.18,3.17-13.4,9.65-17.36,1.77-1.08,3.6-2.08,5.41-3.1,1.56-.89,1.68-1.95.38-3.17-1.58-1.49-3.55-2.97-2.54-5.45,1.15-2.82,3.15-4.59,6.56-4.89,6.68-.6,13.2,0,19.79,1.12,5.73.98,11.35,2.36,16.87,4.01,6.5,1.94,12.84,4.51,18.82,7.78,6.35,3.47,12.16,7.74,17.56,12.55.58.52,1.48,1.09.97,2.06-.41.78-1.32.57-2.04.58-1.66.03-3.33,0-4.99,0Z"
         id="path115" />
      <path
         class="cls-11"
         d="M235.75,330.11c3.62-2.81,5.08-2.74,8.3.58,1.35,1.39,2.79,2.58,4.58,3.37,2.03.89,3.62.08,4.95-1.27,1.39-1.41,1.33-3.07.37-4.81-1.37-2.49-3.39-4.29-5.7-5.82-1.2-.79-2.25-1.72-3.06-2.9-1.87-2.68-1.2-5.78,1.61-7.43,5.33-3.12,10.51-1.81,15.4.91,5.9,3.28,9.38,8.49,11.79,14.83,1.98,5.21.9,10.33,1.18,15.5-2.09,2.1-1.48,5.13-2.67,7.63-2.04,4.29-4,8.6-7.1,12.18-5.79,6.7-12.23,12.69-20.47,16.37-.51.23-1.05.84-1.57.36-.67-.61,0-1.23.34-1.75,3.15-4.81,5-9.92,5.16-15.82.15-5.86-2.06-10.67-5.16-15.26-1.63-2.4-3.38-4.77-5.39-6.85-2.78-2.87-3.48-6.08-2.55-9.82Z"
         id="path117" />
      <path
         class="cls-23"
         d="M172.75,319.14c-4.55.53-8.33-2.09-12.05-4.52-5.28-3.44-10.54-6.97-14.3-12.22-1.55-2.17-2.87-4.47-3.34-7.15-.25-1.47.23-2.27,1.85-2.59,8.7-1.71,17.23-4.06,25.63-6.93,3.83-1.31,7.72-2.46,11.59-3.66.44-.14.99-.54,1.37-.02.32.44-.06.93-.21,1.4-1.21,3.94-2.55,7.81-2.6,12.06-.04,3.36-1.56,6.68-.59,10.09.55,1.95.69,3.91.68,5.91-.04,5.44-2.26,7.65-8.04,7.64Z"
         id="path165" />
    </g>
  </g>
  <path
     class="cls-11"
     d="m 245.75259,240.48544 c 13.35319,-2.76722 13.01738,-2.59235 28.04741,-0.19544 5.09,0.81 10.28,2.16 15.34,3.68 3.21,0.96 5.06,2.82 7.3,4.72 2.71,2.31 5.56,4.4 8,7.09 2.96,3.26 5.5,6.84 7.04,10.77 0.94,2.39 2.44,4.93 1.99,7.96 -0.42,2.85 -0.07,5.81 -0.1,8.72 -0.05,4.86 -1.75,9.19 -4.4,13.18 -0.96,1.44 -2.15,2.14 -3.68,0.67 -0.76,-3.15 -1.37,-6.35 -3.19,-9.14 -1.99,-5.34 -6.13,-8.96 -10.16,-12.68 -5.92,-5.46 -12.9,-8.92 -20.58,-11.16 -1.78,-0.52 -3.59,-0.65 -5.39,-0.87 -2.84356,0.0212 -17.21473,0.70613 -19.09879,1.56182 z"
     id="path91"
     sodipodi:nodetypes="cccccccccccccccc" />
  <path
     class="cls-18"
     d="m 257.19,220.74 c -14.56,14.66 -12.01,39.48 -1.49,52.94 1.96,3.06 4.68,5.35 7.6,7.43 0.41,0.29 0.76,0.65 1.1,1.01 1.35,1.39 1.24,2.15 -0.49,2.96 -3.62,1.69 -7.42,2.85 -11.35,3.52 -3.35,0.57 -6.73,0.79 -10.13,0.81 -8.42,0.05 -16.18,-2.19 -23.34,-6.58 -0.43,-0.26 -0.86,-0.5 -1.34,-0.66 v 0 c -2.06,-1.41 -4,-3 -6,-4.48 v 0 c -4.2,-4.17 -8.09,-8.56 -10.94,-13.85 -1.51,-2.81 -2.64,-5.78 -4.07,-8.62 -2.5,-5.27 -5.54,-10.23 -9.22,-14.74 -6.64,-8.14 -15.71,-11.47 -25.86,-12.21 -10.66,-0.78 -21.07,1.12 -31.39,3.46 -14.07,3.19 -27.55,8.21 -41.01,13.3 -13.3,5.04 -26.73,9.75 -40.38,13.73 -8.13,2.37 -16.43,2.93 -24.58,0.18 -4.57,-1.54 -8.3,-4.51 -11.18,-8.44 -0.49,-0.67 -1.02,-1.3 -1.53,-1.96 -3.9714017,-5.93691 -4.53287,-19.34661 -2.81,-28.67 2.730684,-5.77948 2.9,-6.37 4.68,-9.39 0.59,-0.99 1.06,-2.06 1.67,-3.05 4.78,-8.01 10.62,-15.29 15.75,-23.06 4.32,-5.64 8.76,-11.21 13.63,-16.36 2.88,-3.05 6.02,-5.91 8.95,-8.94 3.34,-3.45 7.25,-6.35 10.09,-10.3 6.86,-5.92 13.95,-11.57 21.4,-16.69 7.72,-5.3 15.58,-10.39 23.88,-14.8 6.78,-3.6 13.49,-7.34 20.65,-10.17 6.5,-2.53 13.06,-4.92 19.7,-7.01 6.08,-1.91 12.12,-3.95 18.41,-5.25 4.95,-1.02 9.83,-2.33 14.83,-3.16 3.12,-0.52 6.23,-1.08 9.39,-0.98 3.46,0.11 6.73,-0.99 10.07,-1.35 3.3,-0.36 6.31,-1.33 9.36,-2.37 5.55,-1.89 10.01,-5.45 14.28,-9.31 4.81,-4.35 9.48,-8.83 14.17,-13.3 3.07,-3.59 6.75,-6.53 10.47,-9.39 1.71,-1.32 2.95,-3.13 4.79,-4.27 6.02,-4.55 11.94,-9.22 17.93,-13.81 4.01,-3.07 8.2,-5.93 12.45,-8.65 5.34,-3.43 11,-6.33 16.57,-9.36 4.87,-2.64 9.83,-5.07 15.28,-6.29 0.15,-0.01 0.29,-0.04 0.43,-0.08 2.33,-0.24 4.39,-1.37 6.58,-2.05 7.3,-2.26 14.76,-2.3 22.24,-2.15 1.72,0.03 3.53,0.59 4.64,2.24 2.82,3.03 1.7,6.68 -0.72,10.76 -4.12,6.95 -9.42,13.04 -14.34,19.41 -6.55,8.48 -12.64,17.26 -17.19,27.01 -0.17,0.36 -0.16,0.8 -0.23,1.2 0.45,0.62 0.27,1.27 0.04,1.9 -1.33,3.65 -2.47,7.37 -3.29,11.14 -0.6,2.77 -0.49,5.72 -0.45,8.61 0.08,5.25 1.5,9.98 4.36,14.47 1.95,3.06 4.69,5.12 7.36,7.3 4.5,3.66 9.4,6.76 14.17,10.05 7.23,4.98 14.14,10.32 20.59,16.33 4.31,4.02 8.45,8.17 12.37,12.52 3.14,3.48 6.15,7.11 8.52,11.23 3.18,5.52 6.98,10.66 9.8,16.43 1.97,4.02 3.76,8.1 5.4,12.25 1.82,4.61 3.11,9.41 4.44,14.18 0.13,0.45 0.39,0.94 0.07,1.42 0.12,5.32 1.59,10.46 2.19,15.73 1.15,10.13 1.24,20.2 -0.02,30.32 -0.73,5.86 -2,11.6 -3.73,17.22 -1.69,5.46 -3.98,10.69 -6.54,15.79 -8.73,17.37 -19.87,33.17 -32.2,48.11 -7.15,8.65 -15.36,16.36 -23.74,23.84 -9.5,8.48 -19.57,16.22 -30.32,23.05 -2.54,1.61 -5.27,2.81 -7.98,4.08 -5.35,2.51 -10.76,4.96 -14.32,10 -2.59,3.67 -3.82,7.83 -4.22,12.31 -0.75,8.36 -0.37,16.76 -1.17,25.14 -0.82,8.61 -4.15,16.09 -8.58,23.28 -3.33,5.4 -7.93,9.57 -12.75,13.54 -0.5,0.41 -1.04,1 -1.75,0.61 -0.71,-0.39 -0.5,-1.19 -0.42,-1.82 0.9,-6.56 -1.14,-12.42 -4.21,-18.06 -0.37,-2.84 -2.26,-4.97 -3.66,-7.27 -2.51,-4.13 -4.94,-8.35 -6.38,-12.91 -1.38,-4.36 -1.54,-9.02 -0.14,-13.53 0.8,-2.57 0.39,-3.58 -2.22,-4.04 -4.5,-0.8 -9.01,-1.61 -13.54,-2.09 -8.99,-0.95 -18.01,-1.74 -27.02,-2.49 -2.81,-0.23 -5.65,-0.09 -8.48,-0.15 -0.8,-0.02 -1.87,0.29 -2.28,-0.57 -0.45,-0.94 0.63,-1.41 1.15,-1.98 3.53,-3.85 8.14,-5.92 12.9,-7.72 8.16,-3.1 16.7,-3.95 25.31,-4.8 7.17,-0.7 14.4,-1.08 21.48,-2.71 8.75,-2.02 16.69,-5.46 23.01,-12.06 0.74,-0.77 1.67,-1.41 1.83,-2.6 5.96,-6.57 11.11,-13.75 15.55,-21.41 1.98,-3.41 3.63,-7.01 5.44,-10.52 2.08,-4.83 4.51,-9.51 6.67,-14.3 2.26455,-3.59454 2.83862,-7.68147 3.89,-11.66 0.64,-1.92 1.41,-2.25 3.02,-0.98 3.57,2.8 7.45,4.88 11.96,5.71 7.38,1.34 13.38,-0.58 18.07,-6.76 4.38,-5.76 7.15,-12.23 9.58,-18.93 1.21959,-10.02184 2.51167,-12.30835 3.52,-27.92 -0.33,-1.01 -0.57,-2.08 -0.56,-3.18 0.1,-5.65 -1.58,-10.94 -3.6,-16.09 -2.61,-6.66 -6.1,-12.88 -10.46,-18.56 -6.03,-7.86 -13.78,-13.62 -22.64,-17.9 -7.8,-3.77 -15.93,-6.2 -24.71,-5.97 -10.23,0.26 -19.4,3.4 -27.52,9.71 -1.83,1.42 -3.85,2.57 -5.21,4.51 z"
     id="path99"
     sodipodi:nodetypes="ccccccccssssccccccccccccccccccccccccccccccccccccccccccccccccccccccccccccccccccccsccccccccccccccccccccccccccccccccc" />
  <path
     class="cls-17"
     d="M94.45,189.36c.56-2.98,2.92-4.78,4.76-6.82,4.86-5.38,10.14-10.35,16.77-13.52,9.6-4.59,21.17-3.05,26.3,7.09,4.22,8.34,3.19,16.61-3.29,24.3-5.86,6.96-13.61,10.38-22.32,12.05-1.58.3-3.2.77-4.33,1.81-3.6,3.31-8.07,4.69-12.62,5.59-12.41,2.46-24.1,6.95-35.71,11.79-6.52,2.72-13.02,5.54-19.8,7.58-5.15,1.54-10.23,2.13-15.26-.51-5.91-3.09-8.27-8.74-6.23-15.08,4.35-13.53,12.23-25.03,20.81-36.1,4.94-6.38,10.42-12.33,16.32-17.82,10.22-9.52,20.82-18.57,32.31-26.58,19.22-13.41,40.28-22.96,62.38-30.34,14.48-4.84,29.42-7.76,44.6-9.37,9.67-1.02,19.38-1.68,29.1-1.45,16.01.39,31.81,2.67,47.27,6.85,18.61,5.03,35.88,13.18,52.06,23.6,11.71,7.54,22.6,16.16,32.13,26.35,15.02,16.04,25.91,34.42,30.02,56.23,2.24,11.88,2.6,23.91.68,35.97-1.1,6.9-2.29,13.75-4.53,20.38-.55,1.62-1.39,3.14-2.32,4.66,1.29-5.19.75-10.49,1.3-15.71.51-4.9.05-9.85-.59-14.66-2.07-15.54-6.94-30.24-14.75-43.88-4.3-7.52-9.46-14.42-15.13-21-12.1-14.04-27.24-23.75-43.73-31.63-8.69-4.15-17.99-5.87-27.54-6.26-21.6-.88-42.09,4.14-61.94,12.14-10.97,4.42-21.18,10.44-31.67,15.85-7.25,3.74-14.55,7.4-22.37,9.77-4.59,1.39-6.23-.03-6.8-4.76-.51-4.2-1.11-8.38-2.45-12.44-3.11-9.5-13.07-15.53-22.94-13.87-6.33,1.06-11.7,4.06-16.97,7.5-9.98,6.53-18.67,14.46-25.88,23.92-3.6,4.72-6.49,9.91-6.18,16.21.04.71-.29,1.73.58,1.99.98.3,1.3-.75,1.79-1.4,1.01-1.36,1.27-3.31,3.14-3.98.76.7.28,1.33-.07,2-.46.89-1.1,1.66-1.53,2.57-2.33,4.9-1.68,7.46,2.91,10.49,5.93,3.92,12.22,5.33,19.21,2.98,4.16-1.4,8.57-1.94,12.71-3.53,6.99-2.69,12.76-6.84,16.21-13.62,1.62-3.19,2.78-6.72,2.12-10.34-.68-3.7-1.55-7.44-4.11-10.46-2.01-2.37-4.71-3.67-7.51-4.71-6.28-2.32-11.82-.06-17.17,3.05-.43.25-.75.66-1.18.92-6.34,3.93-11.71,8.89-16.13,14.9-.56.76-1.19,1.69-2.44,1.3Z"
     id="path166"
     inkscape:label="path166" />
  <path
     class="cls-17"
     d="M215.34,212.56c1.05-.08,1.42.47,1.21,1.23-3.33,12.21,2.09,22.7,6.92,33.1,4.69,10.1,10.51,19.63,18.65,27.48.61.59,1.63,1.3.88,2.28-.61.8-1.57.18-2.31-.11-6.17-2.42-11.73-5.89-16.82-10.08-4.88-4.01-9.45-8.37-13.18-13.52-4.02-5.55-6.72-11.64-7.79-18.42-1.17-7.43,4.67-18.37,11.41-21.53.37-.18.76-.33,1.02-.44Z"
     id="path168" />
  <path
     style="fill:#fedebf;stroke:#bdbdbd;stroke-width:245.808"
     d="M 102.88605,181.1079 Z"
     id="path190" />
  <path
     class="cls-11"
     d="M 102.88605,181.1079 C 114.19,172.24 114.19,172.24 131.36,169.19 c 10.92,6.92 10.92,6.92 11.62,15.17 -2.12,10.34 -2.12,10.34 -13.02627,21.4784 C 116.67,212.46 105.97177,212.97855 95.983689,210.74265 88.586486,201.99621 91.42,193.81 102.88605,181.1079 Z"
     id="path117-8"
     style="fill:#aaaaaa"
     sodipodi:nodetypes="cccccc" />
</svg>
